<svg xmlns="http://www.w3.org/2000/svg" viewBox="0 0 420 420">
  <rect width="420" height="420"/>
  <path fill-rule="evenodd" clip-rule="evenodd" fill="#DA1C5C" d="M179.9,126.8c-2.4-2.6-6.7-5.2-14.6-4.9
    c-15.8,0.6-24,15.6-22.1,24.4c1.5,7-3,13.8-10,15.3c-7,1.5-13.8-3-15.3-10c-5-23.8,13.9-54.4,46.5-55.6c14.8-0.5,26.7,4.7,34.6,13.3
    c7.6,8.3,11,19.2,10.1,29.2c-1.8,19.7-17,30.1-27.8,36.9l-0.5,0.3c10.6,2.8,20,8,28,15c11.1,9.7,19,22.5,23.6,36.6
    c15.5,6.1,30.8,14.4,44.7,25.2c1.9-7.1,6.6-16.4,10.9-20c11.6,22.2,19.1,54.5,21.8,79c-16.1-7.8-46.4-17.6-66.7-20.4
    c3.9-7.5,11.8-14.9,18-18.4c-7.6-5.9-15.7-10.9-24.1-15.1c-0.9,17.4-9,32.7-20,44c-12.5,12.8-29.7,21.5-46.8,22.3
    c-16,0.7-31-3.5-42.3-12.8c-11.5-9.4-18-23.4-17.6-39.6c0.4-15.7,6.8-30.8,18.8-41.6c12-10.9,28.9-16.7,48.7-15.2
    c6.8,0.5,13.8,1.4,20.9,2.8c-2.1-2.7-4.3-5.1-6.8-7.3c-10.5-9.2-25.3-13.9-44.2-9.1c-0.4,0.1-0.9,0.2-1.3,0.3
    c-6.6,1.3-12.6,1-14.9-2.6c-2.9-4.5-3-10.4,3.6-19.3c4.4-6.3,10-11,15.3-14.9c4.1-3,8.8-5.8,12.9-8.4c1.6-1,3-1.9,4.4-2.7
    c11.2-7.1,15.3-11.5,15.8-17.4C183.6,133.4,182.6,129.7,179.9,126.8z M210.6,247.1c-11.9-3.6-23.7-5.8-34.8-6.6
    c-13.5-1-23.2,3-29.4,8.6c-6.4,5.8-10,14-10.3,23c-0.2,8.5,3,14.7,8.2,19c5.4,4.4,13.8,7.4,24.6,6.9c9.6-0.4,20.9-5.6,29.5-14.5
    c8.5-8.7,13.5-20.1,12.6-32C211,250.1,210.8,248.6,210.6,247.1z"/>
</svg>
