<svg width="21" height="19" viewBox="0 0 21 19" xmlns="http://www.w3.org/2000/svg">
<path fill-rule="evenodd" clip-rule="evenodd" d="M11.749 0.737865C11.1939 -0.245954 9.80608 -0.245955 9.25095 0.737863L0.19538 16.7864C-0.359751 17.7702 0.334161 19 1.44442 19H19.5556C20.6658 19 21.3598 17.7702 20.8046 16.7864L11.749 0.737865ZM11.5307 12.8922L12 10.367V7H9V10.367L9.5 12.8922H11.5307ZM11.5307 14.1799C11.2736 13.9958 10.9225 13.9037 10.4774 13.9037C10.0324 13.9037 9.68129 13.9958 9.42415 14.1799C9.17691 14.364 9.05328 14.6234 9.05328 14.9581C9.05328 15.2845 9.17691 15.5397 9.42415 15.7238C9.68129 15.9079 10.0324 16 10.4774 16C10.9225 16 11.2736 15.9079 11.5307 15.7238C11.7878 15.5397 11.9164 15.2845 11.9164 14.9581C11.9164 14.6234 11.7878 14.364 11.5307 14.1799Z" />
</svg>
