<svg width="27" height="24" viewBox="0 0 27 24" fill="none" xmlns="http://www.w3.org/2000/svg">
<path d="M11.8941 0.932038C12.6078 -0.310681 14.3922 -0.310679 15.1059 0.93204L26.7488 21.2039C27.4625 22.4466 26.5704 24 25.1429 24H1.85712C0.429636 24 -0.462537 22.4466 0.251203 21.2039L11.8941 0.932038Z" fill="#D91C5C"/>
<path d="M15 13L14.5307 16H12.5L12 13V9H15V13ZM13.4774 17.2017C13.9225 17.2017 14.2736 17.3111 14.5307 17.5298C14.7878 17.7485 14.9164 18.0567 14.9164 18.4544C14.9164 18.8421 14.7878 19.1453 14.5307 19.364C14.2736 19.5827 13.9225 19.6921 13.4774 19.6921C13.0324 19.6921 12.6813 19.5827 12.4242 19.364C12.1769 19.1453 12.0533 18.8421 12.0533 18.4544C12.0533 18.0567 12.1769 17.7485 12.4242 17.5298C12.6813 17.3111 13.0324 17.2017 13.4774 17.2017Z" fill="white"/>
</svg>
