<svg width="27" height="25" viewBox="0 0 27 25" xmlns="http://www.w3.org/2000/svg">
<path fill-rule="evenodd" clip-rule="evenodd" d="M13.3333 2C19.4027 2 24.7506 5.9502 26.6402 11.8302C26.6755 11.9403 26.6755 12.0597 26.6403 12.1698C24.7506 18.0498 19.4028 22 13.3334 22C7.26392 22 1.9161 18.0498 0.0264456 12.1698C-0.0088152 12.0597 -0.0088152 11.9403 0.0264456 11.8302C1.9161 5.9502 7.26387 2 13.3333 2ZM5.55546 12C5.55546 16.2887 9.04451 19.7778 13.3333 19.7778C17.6221 19.7778 21.1111 16.2887 21.1111 12C21.1111 7.71134 17.622 4.22229 13.3333 4.22229C9.04456 4.22229 5.55546 7.71134 5.55546 12Z"/>
<path fill-rule="evenodd" clip-rule="evenodd" d="M13.7037 16.0741C15.9538 16.0741 17.7778 14.25 17.7778 12C17.7778 9.74993 15.9538 7.9259 13.7037 7.9259C11.4537 7.9259 9.62964 9.74993 9.62964 12C9.62964 14.25 11.4537 16.0741 13.7037 16.0741Z"/>
<path d="M23.6274 0L25.7488 2.12132L3.12135 24.7487L1.00002 22.6274L23.6274 0Z"/>
</svg>
