<svg xmlns="http://www.w3.org/2000/svg" width="128" height="43" viewBox="0 0 128 43">
    <g fill="none" fill-rule="evenodd">
        <g>
            <g>
                <path fill="#231F20" fill-rule="nonzero" d="M3.285 3.867c-.254.454-.352.98-.278 1.496.06.42.23.817.495 1.148.264.332.612.587 1.007.738.485.185 1.017.205 1.514.056.498-.149.933-.457 1.238-.879.305-.42.465-.931.453-1.452-.012-.521-.194-1.024-.518-1.43-.324-.408-.772-.696-1.276-.822-.503-.126-1.034-.082-1.51.125-.477.207-.872.565-1.125 1.02zM3.177 23.187c0 1.132-.642 1.833-1.555 1.833H0v3.36c.338.238 1.25.442 2.163.442 2.873 0 5.306-2.24 5.306-5.126V9.676H3.177v13.511zM25.671 19.722v3.53c-.36.17-.751.262-1.149.271-.833.014-1.655-.193-2.384-.597-.73-.405-1.34-.995-1.773-1.71-.535.726-1.234 1.315-2.04 1.716-.807.402-1.697.604-2.597.591-3.756 0-6.692-3.123-6.692-7.06 0-3.938 2.936-7.06 6.692-7.06 1.422-.023 2.8.499 3.852 1.46V9.673h4.293v8.724c0 1.131.608 1.324 1.183 1.324h.615zm-5.88-3.259c-.003-.557-.148-1.104-.422-1.588-.273-.485-.666-.89-1.14-1.179-.475-.288-1.016-.449-1.57-.467-.554-.018-1.104.107-1.596.364-.353.171-.667.412-.925.708s-.455.642-.577 1.015c-.165.444-.23.918-.192 1.389.037.471.178.929.41 1.34.234.41.554.765.938 1.039.384.273.824.458 1.287.542.463.084.94.065 1.395-.055.455-.121.878-.341 1.24-.644.361-.303.652-.682.852-1.11.2-.429.303-.896.303-1.37l-.003.016zM27.611 23.252V9.674h4.326v1.528c.462-.56 1.04-1.011 1.694-1.322.654-.31 1.368-.474 2.091-.477 1.851 0 3.44 1.04 4.274 2.635.188-.275.416-.593.626-.836.466-.54 1.04-1.011 1.694-1.322.654-.31 1.368-.474 2.092-.477 2.737 0 4.9 2.274 4.9 5.257v8.588h-4.326v-7.871c.012-.278-.033-.556-.132-.817-.098-.26-.248-.497-.441-.697-.193-.2-.425-.359-.68-.466-.256-.108-.531-.162-.809-.159-.61.014-1.192.266-1.621.703-.421.43-.662 1.003-.676 1.604v7.703h-4.326v-7.871c.012-.278-.033-.556-.132-.817-.098-.26-.248-.497-.442-.697-.192-.2-.424-.359-.68-.466-.255-.108-.53-.162-.808-.159-.61.014-1.192.266-1.621.703-.43.438-.672 1.026-.677 1.64v7.67h-4.326z" transform="translate(-656 -16) translate(656 16)"/>
                <path fill="#231F20" d="M55.95 22.081v1.17h-4.326V0h4.326v10.86c1.052-.959 2.429-1.48 3.85-1.457 3.756 0 6.692 3.122 6.692 7.06 0 3.937-2.936 7.06-6.692 7.06-.9.013-1.79-.19-2.596-.59-.456-.228-.877-.514-1.254-.852zm.209-7.206c-.274.484-.419 1.031-.422 1.588l-.003-.015c0 .473.104.94.303 1.368.2.429.49.808.852 1.11.362.304.785.524 1.24.645.456.12.932.14 1.395.055.463-.084.903-.269 1.287-.542.384-.274.705-.628.937-1.04.234-.41.374-.868.412-1.339.037-.471-.028-.945-.193-1.389-.122-.373-.319-.719-.577-1.015-.258-.296-.572-.537-.925-.708-.492-.257-1.042-.382-1.596-.364-.554.018-1.095.18-1.57.467-.474.288-.867.694-1.14 1.179z" transform="translate(-656 -16) translate(656 16)"/>
                <path fill="#231F20" fill-rule="nonzero" d="M68.057 16.463c0-4.073 3.004-7.06 7.536-7.06 4.533 0 7.51 2.987 7.51 7.06 0 4.073-2.974 7.06-7.51 7.06s-7.536-2.987-7.536-7.06zm10.747 0c0-.638-.189-1.261-.541-1.792-.353-.53-.854-.943-1.441-1.187-.587-.244-1.232-.308-1.855-.184-.623.125-1.195.432-1.644.883-.45.45-.755 1.025-.879 1.65-.124.626-.06 1.275.183 1.864.243.59.654 1.093 1.182 1.447.528.355 1.15.544 1.784.544.423.004.842-.076 1.233-.237.39-.16.746-.398 1.044-.698.298-.3.533-.658.692-1.051.158-.394.237-.815.23-1.239h.012zM84.668 9.673v13.579h4.326V15.58c.005-.613.247-1.201.676-1.639.43-.437 1.011-.689 1.622-.703.277-.003.552.051.808.159.256.107.488.266.68.466.193.2.344.437.442.697.099.26.144.539.132.817v7.871h4.326V14.66c0-2.983-2.163-5.257-4.9-5.257-.724.003-1.438.166-2.092.477-.654.311-1.232.762-1.694 1.322v-1.53h-4.326z" transform="translate(-656 -16) translate(656 16)"/>
                <path fill="#DA1C5C" d="M108.45 13.255c-.344-.377-.977-.762-2.123-.722-2.3.081-3.477 2.276-3.208 3.556.214 1.019-.435 2.02-1.45 2.234-1.014.216-2.01-.436-2.225-1.455-.729-3.47 2.017-7.937 6.751-8.104 2.146-.076 3.872.682 5.022 1.94 1.11 1.214 1.596 2.805 1.465 4.255-.26 2.87-2.463 4.395-4.03 5.389l-.072.045c1.532.41 2.903 1.164 4.066 2.184 1.606 1.409 2.763 3.276 3.432 5.333 2.25.886 4.468 2.098 6.487 3.668.28-1.03.958-2.396 1.58-2.91 1.685 3.234 2.775 7.954 3.16 11.524-2.345-1.133-6.738-2.564-9.686-2.982.566-1.1 1.718-2.167 2.61-2.678-1.105-.855-2.285-1.588-3.501-2.204-.132 2.544-1.31 4.774-2.904 6.418-1.813 1.87-4.31 3.135-6.802 3.251-2.319.108-4.506-.512-6.137-1.86-1.663-1.376-2.615-3.408-2.556-5.78.057-2.289.995-4.49 2.728-6.064 1.748-1.587 4.19-2.432 7.064-2.222.983.071 2.002.206 3.041.408-.298-.392-.628-.748-.986-1.062-1.525-1.337-3.668-2.024-6.418-1.326-.064.016-.128.029-.192.038-.961.192-1.828.149-2.165-.381-.416-.654-.437-1.518.518-2.809.637-.913 1.447-1.609 2.22-2.168.6-.434 1.28-.853 1.876-1.22.226-.139.44-.27.633-.393 1.624-1.03 2.216-1.68 2.294-2.54.037-.405-.106-.942-.491-1.363zm4.451 17.537c-1.726-.527-3.445-.842-5.052-.96-1.963-.143-3.365.434-4.274 1.26-.925.839-1.459 2.041-1.492 3.36-.03 1.237.437 2.15 1.19 2.773.783.648 2.005 1.078 3.575 1.004 1.397-.064 3.03-.819 4.286-2.114 1.237-1.276 1.965-2.925 1.836-4.669-.016-.22-.04-.438-.069-.654z" transform="translate(-656 -16) translate(656 16)"/>
            </g>
        </g>
    </g>
</svg>
