<svg width="21" height="20" viewBox="0 0 21 20" xmlns="http://www.w3.org/2000/svg">
<path fill-rule="evenodd" clip-rule="evenodd" d="M0.204789 7.87962L2.45962 7.51441C2.83787 6.26593 3.49894 5.14037 4.36828 4.21229L3.557 2.07657C4.59273 1.16294 5.81005 0.450407 7.14789 2.97165e-05L8.59238 1.77115C9.20524 1.62883 9.84384 1.55359 10.5 1.55359C11.1561 1.55359 11.7947 1.62882 12.4075 1.77112L13.852 0C15.1899 0.450363 16.4072 1.16289 17.4429 2.07649L16.6316 4.21221C17.501 5.14031 18.1621 6.26591 18.5404 7.51443L20.7952 7.87964C20.9295 8.55009 21 9.24361 21 9.95359C21 10.6635 20.9295 11.3571 20.7952 12.0275L18.5404 12.3927C18.1622 13.6412 17.501 14.7668 16.6317 15.695L17.4429 17.8307C16.4072 18.7443 15.1899 19.4568 13.8521 19.9072L12.4076 18.1361C11.7947 18.2784 11.1561 18.3536 10.5 18.3536C9.84382 18.3536 9.20521 18.2784 8.59233 18.136L7.14786 19.9071C5.81003 19.4568 4.59271 18.7442 3.55699 17.8306L4.36827 15.6949C3.49892 14.7668 2.83784 13.6412 2.4596 12.3927L0.204778 12.0275C0.0704634 11.3571 0 10.6636 0 9.95359C0 9.2436 0.070467 8.55007 0.204789 7.87962ZM10.5 14.1536C12.8196 14.1536 14.7 12.2732 14.7 9.95359C14.7 7.634 12.8196 5.75359 10.5 5.75359C8.1804 5.75359 6.3 7.634 6.3 9.95359C6.3 12.2732 8.1804 14.1536 10.5 14.1536Z"/>
</svg>
