<svg width="20" height="20" viewBox="0 0 20 20" xmlns="http://www.w3.org/2000/svg">
<path fill-rule="evenodd" clip-rule="evenodd" d="M0.571429 0C0.255837 0 0 0.255838 0 0.571429V5.42857C0 5.74416 0.255837 6 0.571429 6H19.4286C19.7442 6 20 5.74416 20 5.42857V0.571429C20 0.255837 19.7442 0 19.4286 0H0.571429ZM19 2H11V4H19V2Z"/>
<path fill-rule="evenodd" clip-rule="evenodd" d="M0.571429 7C0.255837 7 0 7.25584 0 7.57143V12.4286C0 12.7442 0.255837 13 0.571429 13H19.4286C19.7442 13 20 12.7442 20 12.4286V7.57143C20 7.25584 19.7442 7 19.4286 7H0.571429ZM19 9H11V11H19V9Z"/>
<path fill-rule="evenodd" clip-rule="evenodd" d="M0 14.5714C0 14.2558 0.255837 14 0.571429 14H19.4286C19.7442 14 20 14.2558 20 14.5714V19.4286C20 19.7442 19.7442 20 19.4286 20H0.571429C0.255837 20 0 19.7442 0 19.4286V14.5714ZM11 16H19V18H11V16Z"/>
</svg>
