<svg width="20" height="20" viewBox="0 0 20 20" xmlns="http://www.w3.org/2000/svg">
<path fill-rule="evenodd" clip-rule="evenodd" d="M10 2C5.58172 2 2 5.58172 2 10C2 14.4183 5.58172 18 10 18C11.1712 18 12.281 17.749 13.2809 17.2987C13.5009 17.1997 13.7493 17.1835 13.9802 17.2531C15.0582 17.5782 16.1613 17.7632 17.0663 17.8677C16.7653 17.2512 16.4715 16.4797 16.2688 15.5535C16.2071 15.272 16.2699 14.9776 16.4411 14.7457C17.4211 13.4182 18 11.7781 18 10C18 5.58172 14.4183 2 10 2ZM19 19C19 20 18.9997 20 18.9997 20L18.9957 20L18.9875 20L18.9597 19.9998C18.9361 19.9995 18.9025 19.9991 18.8597 19.9983C18.7741 19.9966 18.6512 19.9933 18.4967 19.9868C18.1878 19.9738 17.7507 19.9479 17.2293 19.8965C16.2798 19.8028 15.0295 19.6221 13.7566 19.2701C12.5956 19.741 11.3269 20 10 20C4.47715 20 0 15.5228 0 10C0 4.47715 4.47715 0 10 0C15.5228 0 20 4.47715 20 10C20 12.0489 19.3828 13.9562 18.3244 15.5429C18.5644 16.4315 18.897 17.105 19.1771 17.5645C19.3383 17.8291 19.482 18.0224 19.5801 18.1443C19.6291 18.2052 19.6665 18.248 19.6889 18.2729C19.7001 18.2853 19.7076 18.2932 19.7107 18.2965L19.709 18.2948L19.7081 18.2939C19.7096 18.2954 19.7105 18.2963 19.7119 18.2977C19.9941 18.5837 20.0778 19.0111 19.9239 19.3827C19.7691 19.7564 19.4041 20 18.9997 20L19 19ZM19.7119 18.2977V18.2977Z" />
<path d="M6 5H14V7H6V5Z" />
<path d="M4 9H16V11H4V9Z" />
<path d="M6 13H14V15H6V13Z" />
</svg>
