<svg width="27" height="20" viewBox="0 0 27 20" xmlns="http://www.w3.org/2000/svg">
<path fill-rule="evenodd" clip-rule="evenodd" d="M13.3333 0C19.4027 0 24.7506 3.9502 26.6402 9.83018C26.6755 9.94034 26.6755 10.0597 26.6403 10.1698C24.7506 16.0498 19.4028 20 13.3334 20C7.26392 20 1.9161 16.0498 0.0264456 10.1698C-0.0088152 10.0597 -0.0088152 9.94034 0.0264456 9.83018C1.9161 3.9502 7.26387 0 13.3333 0ZM5.55546 10C5.55546 14.2887 9.04451 17.7778 13.3333 17.7778C17.6221 17.7778 21.1111 14.2887 21.1111 10C21.1111 5.71134 17.622 2.22229 13.3333 2.22229C9.04456 2.22229 5.55546 5.71134 5.55546 10Z" />
<path fill-rule="evenodd" clip-rule="evenodd" d="M13.7037 14.0741C15.9538 14.0741 17.7778 12.25 17.7778 9.99998C17.7778 7.74993 15.9538 5.9259 13.7037 5.9259C11.4537 5.9259 9.62964 7.74993 9.62964 9.99998C9.62964 12.25 11.4537 14.0741 13.7037 14.0741Z" />
</svg>
